<?xml version="1.0" encoding="UTF-8"?>
<svg version="1.1" xmlns="http://www.w3.org/2000/svg" width="100" height="50">
<path d="M0 0 C33 0 66 0 100 0 C100 16.5 100 33 100 50 C67 50 34 50 0 50 C0 33.5 0 17 0 0 Z " fill="#FDFDFD" transform="translate(0,0)"/>
<path d="M0 0 C0.66 0 1.32 0 2 0 C3.0625 2.375 3.0625 2.375 4 5 C3.67 5.66 3.34 6.32 3 7 C4.65 7 6.3 7 8 7 C7.9071875 8.3921875 7.9071875 8.3921875 7.8125 9.8125 C7.67622737 12.97943248 7.67622737 12.97943248 9.5 14.75 C9.995 15.1625 10.49 15.575 11 16 C11 16.66 11 17.32 11 18 C9.68 18.33 8.36 18.66 7 19 C8.65 19.33 10.3 19.66 12 20 C11.25 24.75 11.25 24.75 9 27 C5.98173347 27.27240673 3.03629378 27.08675125 0 27 C0.33 22.71 0.66 18.42 1 14 C1.66 14 2.32 14 3 14 C2.67 12.35 2.34 10.7 2 9 C1.34 9 0.68 9 0 9 C0.01160156 9.6290625 0.02320312 10.258125 0.03515625 10.90625 C0.06361483 13.60574946 0.03839735 16.30066651 0 19 C0.00773437 19.77214844 0.01546875 20.54429688 0.0234375 21.33984375 C-0.0625 23.4375 -0.0625 23.4375 -1 27 C-5.29865445 29.69719495 -8.97792028 30.5342638 -14 30 C-17.375 29 -17.375 29 -20 28 C-20 26.02 -20 24.04 -20 22 C-19.01 22 -18.02 22 -17 22 C-17 21.01 -17 20.02 -17 19 C-16.34 19 -15.68 19 -15 19 C-15 17.02 -15 15.04 -15 13 C-16.175625 12.7834375 -16.175625 12.7834375 -17.375 12.5625 C-20 12 -20 12 -22 11 C-22 9.35 -22 7.7 -22 6 C-20.02 6 -18.04 6 -16 6 C-16 6.66 -16 7.32 -16 8 C-14.95199219 8.09087891 -14.95199219 8.09087891 -13.8828125 8.18359375 C-12.97273437 8.26738281 -12.06265625 8.35117187 -11.125 8.4375 C-10.22007813 8.51871094 -9.31515625 8.59992187 -8.3828125 8.68359375 C-6 9 -6 9 -4 10 C-4 10.66 -4 11.32 -4 12 C-4.66 12 -5.32 12 -6 12 C-6 13.98 -6 15.96 -6 18 C-5.01 18.33 -4.02 18.66 -3 19 C-2.95101563 18.38253906 -2.90203125 17.76507812 -2.8515625 17.12890625 C-2.33391578 11.26521841 -1.38417877 5.72127225 0 0 Z " fill="#272525" transform="translate(28,11)"/>
<path d="M0 0 C1.98 0 3.96 0 6 0 C6 0.66 6 1.32 6 2 C6.69867188 2.06058594 7.39734375 2.12117188 8.1171875 2.18359375 C9.02726563 2.26738281 9.93734375 2.35117187 10.875 2.4375 C11.77992187 2.51871094 12.68484375 2.59992187 13.6171875 2.68359375 C16 3 16 3 18 4 C18 4.66 18 5.32 18 6 C17.34 6 16.68 6 16 6 C16 7.98 16 9.96 16 12 C17.32 12.33 18.64 12.66 20 13 C19.67 14.32 19.34 15.64 19 17 C16.69 16.01 14.38 15.02 12 14 C12.33 14.33 12.66 14.66 13 15 C12.6875 18.5 12.6875 18.5 12 22 C8 24 8 24 4.875 23.0625 C3.451875 22.5365625 3.451875 22.5365625 2 22 C2 20.02 2 18.04 2 16 C2.99 16 3.98 16 5 16 C5 15.01 5 14.02 5 13 C5.66 13 6.32 13 7 13 C7 11.02 7 9.04 7 7 C5.824375 6.7834375 5.824375 6.7834375 4.625 6.5625 C2 6 2 6 0 5 C0 3.35 0 1.7 0 0 Z " fill="#434039" transform="translate(6,17)"/>
<path d="M0 0 C0.66 0 1.32 0 2 0 C4.125 4.625 4.125 4.625 3 8 C2.01 8.495 2.01 8.495 1 9 C0.53272148 10.83528863 0.53272148 10.83528863 0.3671875 13.03515625 C0.28339844 13.84404297 0.19960938 14.65292969 0.11328125 15.48632812 C-0.00466797 16.7615332 -0.00466797 16.7615332 -0.125 18.0625 C-0.21136719 18.91650391 -0.29773437 19.77050781 -0.38671875 20.65039062 C-0.59947228 22.76610633 -0.80079953 24.88296524 -1 27 C-8.58035714 30.47321429 -8.58035714 30.47321429 -13 29 C-12.67 28.34 -12.34 27.68 -12 27 C-11.34 27.33 -10.68 27.66 -10 28 C-9.83322718 24.58343976 -9.83322718 24.58343976 -10 21 C-10.66 20.34 -11.32 19.68 -12 19 C-5.25 19.75 -5.25 19.75 -3 22 C-2.95101563 21.16597656 -2.90203125 20.33195312 -2.8515625 19.47265625 C-2.40682732 12.77862499 -1.6531796 6.50250641 0 0 Z " fill="#4D4947" transform="translate(28,11)"/>
<path d="M0 0 C0.66 0 1.32 0 2 0 C2.33 1.65 2.66 3.3 3 5 C2.34 5 1.68 5 1 5 C1.01160156 5.77085938 1.02320313 6.54171875 1.03515625 7.3359375 C1.04869141 8.84027344 1.04869141 8.84027344 1.0625 10.375 C1.07410156 11.37273438 1.08570313 12.37046875 1.09765625 13.3984375 C1 16 1 16 0 18 C2.64 18 5.28 18 8 18 C8 18.33 8 18.66 8 19 C6.35 19.33 4.7 19.66 3 20 C4.32 20.33 5.64 20.66 7 21 C6.67 21.99 6.34 22.98 6 24 C3.69 24 1.38 24 -1 24 C-1.33 23.01 -1.66 22.02 -2 21 C-4.31 21.33 -6.62 21.66 -9 22 C-8.34 20.68 -7.68 19.36 -7 18 C-7 18.66 -7 19.32 -7 20 C-6.01 19.34 -5.02 18.68 -4 18 C-3.01 18 -2.02 18 -1 18 C-0.505 9.09 -0.505 9.09 0 0 Z " fill="#ABA99E" transform="translate(28,20)"/>
<path d="M0 0 C4.95 0.99 4.95 0.99 10 2 C10 2.66 10 3.32 10 4 C9.34 4 8.68 4 8 4 C8 5.98 8 7.96 8 10 C9.32 10.33 10.64 10.66 12 11 C11.67 12.32 11.34 13.64 11 15 C6.545 13.02 6.545 13.02 2 11 C2.33 9.68 2.66 8.36 3 7 C2.61432869 4.31850007 2.61432869 4.31850007 2 2 C1.34 2 0.68 2 0 2 C0 1.34 0 0.68 0 0 Z " fill="#999967" transform="translate(14,19)"/>
<path d="M0 0 C-0.061875 0.928125 -0.12375 1.85625 -0.1875 2.8125 C-0.32377263 5.97943248 -0.32377263 5.97943248 1.5 7.75 C1.995 8.1625 2.49 8.575 3 9 C3 9.66 3 10.32 3 11 C-0.375 11.125 -0.375 11.125 -4 11 C-6 9 -6 9 -7 7 C-6.34 7 -5.68 7 -5 7 C-5.66 5.02 -6.32 3.04 -7 1 C-4.53721199 -0.231394 -2.7204945 -0.07159196 0 0 Z " fill="#757575" transform="translate(36,18)"/>
<path d="M0 0 C1.32 0.66 2.64 1.32 4 2 C3.74438677 4.3431213 3.40729228 6.67843403 3 9 C1.66666667 9.66666667 0.33333333 10.33333333 -1 11 C-1.99 10.34 -2.98 9.68 -4 9 C-3.67 6.69 -3.34 4.38 -3 2 C-2.34 2 -1.68 2 -1 2 C-0.67 1.34 -0.34 0.68 0 0 Z " fill="#6F6C68" transform="translate(15,30)"/>
<path d="M0 0 C0.66 0 1.32 0 2 0 C4.125 4.625 4.125 4.625 3 8 C2.01 8.495 2.01 8.495 1 9 C0.53248212 11.35599235 0.53248212 11.35599235 0.375 14.0625 C0.30023437 14.98160156 0.22546875 15.90070312 0.1484375 16.84765625 C0.09945313 17.55792969 0.05046875 18.26820312 0 19 C-3.4454712 12.58759527 -1.67886379 6.74543488 0 0 Z " fill="#454545" transform="translate(28,11)"/>
<path d="M0 0 C0.66 0 1.32 0 2 0 C2.33 1.65 2.66 3.3 3 5 C2.34 5 1.68 5 1 5 C1.02320313 5.74765625 1.04640625 6.4953125 1.0703125 7.265625 C1.08835937 8.25046875 1.10640625 9.2353125 1.125 10.25 C1.14820313 11.22453125 1.17140625 12.1990625 1.1953125 13.203125 C0.99862781 16.0196498 0.44568916 17.60949036 -1 20 C-1.99 20 -2.98 20 -4 20 C-4 19.34 -4 18.68 -4 18 C-3.01 18 -2.02 18 -1 18 C-0.505 9.09 -0.505 9.09 0 0 Z " fill="#DEDBCF" transform="translate(28,20)"/>
<path d="M0 0 C1.32 0.33 2.64 0.66 4 1 C3.67 1.99 3.34 2.98 3 4 C3 3.34 3 2.68 3 2 C2.34 2 1.68 2 1 2 C0.67 4.31 0.34 6.62 0 9 C-0.99 9 -1.98 9 -3 9 C-3 7.02 -3 5.04 -3 3 C-2.01 3 -1.02 3 0 3 C0 2.01 0 1.02 0 0 Z " fill="#6E6B56" transform="translate(11,30)"/>
<path d="M0 0 C0 2.64 0 5.28 0 8 C-0.99 8.495 -0.99 8.495 -2 9 C-2 8.34 -2 7.68 -2 7 C-2.66 7 -3.32 7 -4 7 C-4 5.02 -4 3.04 -4 1 C-2 0 -2 0 0 0 Z " fill="#E1E2E0" transform="translate(26,22)"/>
<path d="M0 0 C1.98 0 3.96 0 6 0 C5.67 0.66 5.34 1.32 5 2 C4.34 2 3.68 2 3 2 C4.32 2.99 5.64 3.98 7 5 C6.34 5 5.68 5 5 5 C4.67 5.66 4.34 6.32 4 7 C2.68 6.34 1.36 5.68 0 5 C0 3.35 0 1.7 0 0 Z " fill="#9B9B9B" transform="translate(6,17)"/>
<path d="M0 0 C0.33 0.66 0.66 1.32 1 2 C3.32156597 2.40729228 5.6568787 2.74438677 8 3 C7.67 3.66 7.34 4.32 7 5 C4.03 5 1.06 5 -2 5 C-1.34 3.35 -0.68 1.7 0 0 Z " fill="#65605E" transform="translate(30,33)"/>
<path d="M0 0 C2.64 0 5.28 0 8 0 C8 1.32 8 2.64 8 4 C5.36 3.67 2.72 3.34 0 3 C0 2.01 0 1.02 0 0 Z " fill="#18181D" transform="translate(32,31)"/>
<path d="M0 0 C0.33 0 0.66 0 1 0 C1.0270043 1.45823212 1.04639787 2.91660675 1.0625 4.375 C1.07410156 5.18710937 1.08570313 5.99921875 1.09765625 6.8359375 C1 9 1 9 0 11 C-1.65 10.67 -3.3 10.34 -5 10 C-4.67 9.01 -4.34 8.02 -4 7 C-3.01 7 -2.02 7 -1 7 C-0.67 4.69 -0.34 2.38 0 0 Z " fill="#151414" transform="translate(26,26)"/>
<path d="M0 0 C0.33 1.32 0.66 2.64 1 4 C2.32 4.33 3.64 4.66 5 5 C4.67 6.32 4.34 7.64 4 9 C2.02 8.01 0.04 7.02 -2 6 C-1.34 4.02 -0.68 2.04 0 0 Z " fill="#746F65" transform="translate(21,25)"/>
<path d="M0 0 C1.98 0.495 1.98 0.495 4 1 C4 4.3 4 7.6 4 11 C2.35 10.67 0.7 10.34 -1 10 C-0.67 9.34 -0.34 8.68 0 8 C0.66 8.33 1.32 8.66 2 9 C2.16677282 5.58343976 2.16677282 5.58343976 2 2 C1.34 1.34 0.68 0.68 0 0 Z " fill="#201C0F" transform="translate(16,30)"/>
<path d="M0 0 C1.98 0 3.96 0 6 0 C6.33 0.99 6.66 1.98 7 3 C7.99 3.33 8.98 3.66 10 4 C6.625 4.125 6.625 4.125 3 4 C1 2 1 2 0 0 Z " fill="#4D4D4E" transform="translate(29,25)"/>
<path d="M0 0 C0.66 0 1.32 0 2 0 C2.144375 1.11375 2.28875 2.2275 2.4375 3.375 C2.78372035 6.82142047 2.78372035 6.82142047 4 9 C1.525 8.01 1.525 8.01 -1 7 C-0.67 4.69 -0.34 2.38 0 0 Z " fill="#C7C37B" transform="translate(12,32)"/>
<path d="M0 0 C1.65 0.33 3.3 0.66 5 1 C4.67 1.99 4.34 2.98 4 4 C1.69 4 -0.62 4 -3 4 C-2.34 3.67 -1.68 3.34 -1 3 C-0.67 2.01 -0.34 1.02 0 0 Z " fill="#B6B4B5" transform="translate(30,40)"/>
<path d="M0 0 C0.66 0 1.32 0 2 0 C2.33 1.65 2.66 3.3 3 5 C2.34 5 1.68 5 1 5 C1 6.65 1 8.3 1 10 C0.67 10 0.34 10 0 10 C0 6.7 0 3.4 0 0 Z " fill="#D7D7D7" transform="translate(28,20)"/>
<path d="M0 0 C1.98 0.66 3.96 1.32 6 2 C6 2.66 6 3.32 6 4 C5.34 4 4.68 4 4 4 C4 4.66 4 5.32 4 6 C3.34 6 2.68 6 2 6 C2 4.68 2 3.36 2 2 C1.34 2 0.68 2 0 2 C0 1.34 0 0.68 0 0 Z " fill="#C8C4B9" transform="translate(14,19)"/>
</svg>
